<svg xmlns="http://www.w3.org/2000/svg" viewBox="0 0 64 64">
  <rect x="4" y="16" width="56" height="32" rx="6" fill="#7493a3"/>
  <g fill="#0b0e14">
    <rect x="10" y="22" width="6" height="6" rx="1"/>
    <rect x="19" y="22" width="6" height="6" rx="1"/>
    <rect x="28" y="22" width="6" height="6" rx="1"/>
    <rect x="37" y="22" width="6" height="6" rx="1"/>
    <rect x="46" y="22" width="8" height="6" rx="1"/>
    <rect x="10" y="31" width="8" height="6" rx="1"/>
    <rect x="21" y="31" width="6" height="6" rx="1"/>
    <rect x="30" y="31" width="6" height="6" rx="1"/>
    <rect x="39" y="31" width="6" height="6" rx="1"/>
    <rect x="48" y="31" width="6" height="6" rx="1"/>
    <rect x="18" y="40" width="28" height="4" rx="1"/>
  </g>
</svg>
