<svg width="480" height="418" viewBox="0 0 480 418" fill="none" xmlns="http://www.w3.org/2000/svg">
<path d="M147.04 0.839844L119.76 0.879843L106.4 23.9998L137.54 78.2598L74.8 78.0998L48.4 124.9H282.2L255.14 78.2598L191.3 78.1398L147.02 0.839844H147.04ZM270.54 0.839844L216.8 1.33984L333.72 203.88L360.54 157.08L328.74 101.78L373.54 24.7798L359.88 1.13984H333.16L301.76 55.2398L270.54 0.839844ZM408.28 84.7398L291.36 287.24L345.28 287.08L377.3 231.88L466.36 232.2L480 208.54L466.68 185.4L404.08 185.24L435.56 131L408.28 84.7398ZM188.64 130.72L134.72 130.88L102.7 186.08L13.64 185.76L0 209.4L13.32 232.54L75.92 232.7L44.42 286.9L71.72 333.2L188.64 130.72ZM146.6 214L146.48 214.2L146.44 214.12L119.6 260.92L151.4 316.22L106.6 393.22L120.28 416.86H147L147.08 416.74L178.44 362.78L209.6 417.18L263.36 416.66L263.28 416.54H263.48L146.6 214ZM197.6 292.6L224.68 339.24L288.52 339.36L332.82 416.66L360.08 416.62L373.44 393.5L342.3 339.24L405.04 339.4L431.44 292.6H197.6Z" fill="white"/>
</svg>
